<svg baseProfile="tiny" viewBox="0 0 512 512" xml:space="preserve" xmlns="http://www.w3.org/2000/svg"><path d="m219.749 256.252.001-.005-3.251 11.519 3.25-11.514zM236.465 281.259l-3.582-.022 3.582.022zM235.544 298.461h.003l-21.457.078 21.454-.078zM240.042 281.28l-3.583-.021 3.583.021zM237.425 296.999l3.737-14.255-3.737 14.258v-.003zM316.427 231.352l-6.962 32.733 6.962-32.733zM298.529 231.352l-5.287 24.453 5.287-24.455v.002z" fill="#8b8888" class="fill-000000"></path><path d="M315.234 229.879h-14.89c-.826 0-1.646.663-1.821 1.47l-5.287 24.455-5.286 24.456c-.174.807-.993 1.469-1.82 1.469h-10.538c-10.426 0-9.221-7.213-7.084-17.093.021-.099.042-.196.062-.298l.234-1.246.044-.233.477-2.536.51-2.717c.155-.819.39-2.017.545-2.77l2.401-11.741 2.406-11.741c.166-.81-.376-1.475-1.204-1.475h-15.282c-.824 0-1.644.665-1.812 1.473l-3.287 15.59-3.286 15.587a.08.08 0 0 0-.005.024l-.305 1.449c-3.786 17.279-2.782 33.758 17.789 34.273.337.01.597.013.597.013h32.289c.827 0 1.644-.664 1.816-1.472l6.965-32.731 6.962-32.734c.173-.809-.362-1.472-1.19-1.472zM374.633 281.898c.826 0 1.368.662 1.202 1.472l-1.447 7.066M372.945 297.507l1.444-7.07-1.446 7.072c0-.002.002-.002.002-.002zM371.132 298.993l.008-.002c-4.383.035-17.551.136-27.447.136 12.044 0 27.439-.132 27.439-.132v-.002zM334.811 272.797c-.012-.774.869-2.108 1.695-2.108l-1.859-.03c-.837 8.427.164 2.138.164 2.138z" fill="#8b8888" class="fill-000000"></path><path d="M345.05 299.123c-.095 0-.192 0-.287.002.094-.002.192-.002.287-.002zM374.633 281.898c.826 0 1.368.662 1.202 1.472l-1.447 7.066-.235 1.152M352.099 299.108h-.061.061zM348.443 299.119h-.212.212zM347.328 299.121c-.118 0-.233 0-.351.002.118-.002.233-.002.351-.002zM346.194 299.123h-.309.309zM348.229 299.119l-.901.002.901-.002zM352.04 299.108c-1.204.004-2.406.009-3.593.011 1.187-.002 2.39-.007 3.593-.011zM371.143 298.991zM372.945 297.511l1.21-5.922-1.212 5.925c0-.002.002-.002.002-.005v.002zM346.979 299.123h-.785.785zM344.759 299.125h-1.062 1.062zM345.884 299.123h-.838.838z" fill="#8b8888" class="fill-000000"></path><path d="m128.083 272.974 2.312-10.253-2.644 11.72-2.537 11.938 2.224-10.465c.172-.81.463-2.133.645-2.94z" fill="#131B28" class="fill-131b28"></path><path d="M155.765 229.707h-16.352c-.827 0-1.652.661-1.837 1.465l-1.55 6.843-1.551 6.846c-.182.805.345 1.465 1.172 1.465h16.478c.826 0 1.648-.661 1.825-1.468l1.499-6.844 1.499-6.838v-.002c.176-.806-.356-1.467-1.183-1.467zM152.207 252.472v-.002l-4.795 22.187 4.795-22.185z" fill="#8b8888" class="fill-000000"></path><path d="M104.706 325.984s8.243.105 13.482.105c-3.979 0-10.554-.072-13.489-.106l.007.001zM132.708 252.469l-2.315 10.252 2.315-10.252z" fill="#131B28" class="fill-131b28"></path><path d="M151.024 251.001h-16.48c-.826 0-1.652.661-1.834 1.468l-2.315 10.253-2.312 10.253c-.182.806-.474 2.129-.646 2.938l-2.224 10.466-2.223 10.465a32.105 32.105 0 0 1-.792 2.895s-3.079 9.161-8.255 9.057c-.22-.005-.434-.007-.646-.012-2.507-.049-4.479-.084-4.479-.084h-.004c-.824-.012-1.655.633-1.847 1.435l-1.71 7.187-1.707 7.181c-.192.803.327 1.466 1.147 1.479 2.936.034 9.51.108 13.489.108 12.929 0 19.745-7.163 24.113-27.774l5.113-23.657 4.795-22.188c.176-.809-.358-1.469-1.183-1.47zM385.134 298.288c-.827 0-1.364-.663-1.189-1.473l12.397-58.069M402.362 296.813l5.015-24.786-5.015 24.786z" fill="#8b8888" class="fill-000000"></path><path d="M384.124 297.552c-.1-.404-.042-1.396.134-2.206l5.885-27.564-6.199 29.035c-.174.809.362 1.472 1.188 1.472h1.506c-.828-.001-2.412-.332-2.514-.737zM401.384 297.957c-.451.182-1.496.331-2.324.331h1.506c.826 0 1.638-.663 1.8-1.475l.301-1.473c-.166.81-.833 2.434-1.283 2.617zM404.874 284.421l2.214-10.938c-.002.007-.002.016-.004.021l-2.21 10.917zM453.79 242.636l.683 2.822c.188.808-.334 1.463-1.158 1.465M402.663 295.342l2.207-10.919-2.207 10.919zM453.111 239.746l.676 2.89-.676-2.89zM407.084 273.482c.164-.809.438-2.122.608-2.922l2.364-11.075-2.677 12.544-.295 1.453zM396.546 237.794c-.165.781-.375 1.769-.517 2.422l-5.883 27.564 6.198-29.035.202-.951z" fill="#8b8888" class="fill-000000"></path><path d="m454.469 245.458-.684-2.822-.676-2.89-.343-1.463c-1.337-5.2-5.267-8.202-13.799-8.202l-13.283-.014-12.234-.014h-13.766c-.825 0-1.643.66-1.812 1.47l-.61 2.876-.718 3.397-.2.952-6.199 29.035-5.884 27.564c-.175.811-.232 1.802-.133 2.206.1.405 1.686.736 2.514.736h12.416c.828 0 1.875-.149 2.324-.331.45-.182 1.117-1.807 1.282-2.616l2.208-10.92 2.209-10.917.004-.021.295-1.453 2.677-12.544 2.365-11.079c.175-.805.988-1.463 1.814-1.465l39.074-.02c.825-.003 1.347-.658 1.159-1.465z" fill="#8b8888" class="fill-000000"></path><path d="M504.772 219.944c-.829.006-2.181.011-3.009.011h-12.506c-.829 0-1.888.559-2.354 1.241l-27.656 40.518c-.467.684-1.001.581-1.185-.224l-2.034-8.926c-.183-.807-1.012-1.465-1.837-1.465h-17.78c-.828 0-1.317.649-1.091 1.444l7.966 27.909c.228.795.245 2.103.04 2.903l-3.473 13.508c-.206.801.303 1.457 1.131 1.457h17.571c.825 0 1.671-.656 1.875-1.457l3.476-13.508c.204-.801.78-1.998 1.277-2.659l44.897-59.59c.499-.661.229-1.197-.597-1.192l-4.711.03zM363.521 254.897v-.017c-.104.897-.932 1.555-1.759 1.555h-22.541c-.779 0-1.175-.53-1.061-1.184.007-.019.009-.036.021-.052 0 0-.008.002-.015.006.005-.026.005-.049.013-.075l.103-.384c2.152-5.724 6.538-9.48 14.78-9.48 9.279.002 11.088 4.535 10.459 9.631zm-6.614-26.017c-28.933 0-35.79 17.562-39.637 35.287-3.846 18.066-3.514 34.958 26.426 34.958h1.062c.096-.002.191-.002.286-.002h1.931c.118-.002.234-.002.351-.002l.902-.002h.213c1.185-.002 2.388-.007 3.591-.011h.061c7.908-.031 15.838-.092 19.052-.117.819-.012 1.623-.674 1.793-1.477l1.212-5.924.235-1.154 1.446-7.065c.167-.811-.375-1.473-1.202-1.473h-26.917c-10.705 0-13.885-2.845-12.714-11.208h43.028l-.004.004c.012 0 .021-.004.031-.004.683-.013 1.316-.484 1.565-1.111.047-.121.088-.246.104-.375l-.005.004c6.388-24.098 4.557-40.327-22.813-40.327l.003-.001zM220.156 254.806l-.407 1.441-.001.005-3.249 11.514-3.248 11.513c-.225.795-1.085 1.445-1.913 1.445h-17.197c-13.043 0-16.22-10.201-13.043-25.25 3.175-15.391 9.402-24.959 22.24-25.929 17.545-1.322 21.054 11.017 16.818 25.261zm11.793 25.033s8.108-19.687 9.95-31.058c2.511-15.222-5.11-37.296-34.547-37.296-29.27 0-41.979 21.076-46.829 43.988-4.849 23.077 1.505 43.316 30.607 43.151l22.96-.085 21.457-.078c.827-.008 1.672-.662 1.882-1.461l3.738-14.258c.208-.801-.297-1.459-1.123-1.463l-3.583-.021-3.581-.021c-.704-.006-1.105-.459-1.021-1.063.016-.109.04-.221.09-.335z" fill="#8b8888" class="fill-000000"></path><path d="M376.843 266.662a.986.986 0 1 1-1.973.001.986.986 0 0 1 1.973-.001zM8.453 241.066c-8.082 11.616-7.075 26.728-.902 39.071.147.296.301.587.453.879.097.184.188.373.289.555.057.109.121.216.18.32.105.197.213.384.322.576.192.338.389.674.589 1.01.111.185.221.369.336.554.223.359.451.716.684 1.07.097.151.192.303.292.449.322.48.651.96.99 1.431l.028.036c.054.076.113.15.167.226.293.405.597.805.902 1.201l.34.433c.273.344.551.685.834 1.025.106.127.212.255.319.38a53.608 53.608 0 0 0 1.186 1.352c.016.019.03.03.044.048a55.393 55.393 0 0 0 1.56 1.629c.31.312.625.617.943.925.129.122.257.248.386.366.425.4.854.793 1.292 1.176.008.008.013.014.021.017.074.066.151.13.225.191.386.335.779.667 1.174.993.161.13.324.259.486.388.323.259.65.514.979.765l.523.398c.363.266.729.53 1.098.787.135.098.265.191.4.284.037.026.071.054.109.079.351.24.708.474 1.066.705.154.103.307.208.462.308.549.347 1.106.69 1.67 1.023l.461.26c.414.239.831.474 1.253.703.228.123.463.239.693.356.299.157.595.315.897.466.069.035.14.068.208.101.121.059.244.116.367.178.47.225.943.444 1.421.658l.301.134c.547.239 1.1.471 1.658.69.134.054.269.105.404.159.516.198 1.039.395 1.564.579l.197.067c.577.202 1.159.389 1.745.571.14.041.28.086.421.127.597.18 1.186.394 1.802.508 39.084 7.127 50.437-23.487 50.437-23.487-9.535 12.422-26.46 15.699-42.496 12.051-.608-.137-1.197-.326-1.79-.502l-.447-.136a53.28 53.28 0 0 1-1.723-.561l-.237-.085a56.289 56.289 0 0 1-1.52-.563c-.142-.057-.284-.11-.426-.167-.552-.218-1.1-.445-1.641-.683-.112-.047-.218-.097-.328-.146-.465-.21-.925-.422-1.385-.643l-.399-.192c-.359-.175-.716-.361-1.07-.544-.238-.125-.479-.244-.714-.374a42.189 42.189 0 0 1-1.283-.72c-.144-.081-.289-.158-.434-.241a64.3 64.3 0 0 1-1.671-1.024c-.152-.097-.301-.2-.451-.3-.399-.258-.797-.52-1.188-.791-.13-.086-.256-.182-.383-.269a69.758 69.758 0 0 1-1.124-.812c-.168-.124-.334-.253-.498-.377a50.41 50.41 0 0 1-1.014-.793c-.151-.12-.303-.241-.452-.362a64.472 64.472 0 0 1-1.263-1.063c-.043-.039-.091-.076-.138-.116a63.628 63.628 0 0 1-1.328-1.208c-.127-.121-.25-.238-.374-.36a36.592 36.592 0 0 1-.954-.935l-.374-.373c-.398-.408-.788-.82-1.171-1.239-.019-.021-.039-.039-.058-.062a47.63 47.63 0 0 1-1.499-1.721c-.289-.348-.575-.7-.854-1.057a25.42 25.42 0 0 1-.314-.39 60.841 60.841 0 0 1-.987-1.314c-8.903-12.144-12.102-28.894-4.986-42.649" fill="#8b8888" class="fill-000000"></path><path d="M33.54 231.28c-5.845 8.411-5.527 19.669-.968 28.564a37.241 37.241 0 0 0 2.585 4.315c.875 1.255 1.846 2.748 3.008 3.756.422.464.862.917 1.312 1.361.114.117.23.228.346.343.436.422.88.839 1.339 1.243.019.016.036.034.055.047.005.006.01.008.013.014.508.444 1.032.873 1.565 1.294.118.09.235.185.355.277.534.409 1.078.812 1.637 1.195a.545.545 0 0 1 .047.037c.246.169.498.328.747.491.12.078.234.161.354.234.398.255.802.504 1.213.743.058.036.115.065.171.099.354.204.713.405 1.073.6.125.071.253.133.381.199.249.13.497.262.75.389.037.018.076.035.113.051.515.254 1.035.498 1.565.729.113.05.23.095.346.143.423.18.852.355 1.282.521.183.069.367.135.55.202.39.145.783.277 1.178.41.179.057.354.115.533.17.562.174 1.117.395 1.703.492 30.176 5 37.144-18.234 37.144-18.234-6.281 9.043-18.442 13.36-31.42 9.991a36.006 36.006 0 0 1-2.222-.66 38.322 38.322 0 0 1-1.736-.612 39.28 39.28 0 0 1-1.287-.52c-.116-.05-.233-.094-.347-.146a38.246 38.246 0 0 1-1.575-.73c-.266-.131-.527-.269-.789-.402-.151-.079-.304-.157-.456-.235-.336-.183-.67-.371-1-.563-.078-.045-.159-.087-.238-.135a37.875 37.875 0 0 1-1.21-.738c-.123-.079-.241-.164-.364-.244a48.345 48.345 0 0 1-.784-.519 40.328 40.328 0 0 1-1.631-1.193c-.123-.097-.247-.191-.367-.288-5.681-4.485-10.183-10.615-12.324-17.564-2.244-7.208-1.761-15.299 2.126-21.865" fill="#8b8888" class="fill-000000"></path><path d="M54.639 223.968c-3.445 5.07-3.784 11.368-1.393 16.968 2.521 5.944 7.687 10.607 13.717 12.817.249.093.497.175.749.261.11.034.219.071.33.104.355.112.708.242 1.075.311 16.662 3.22 21.182-8.551 22.385-10.283-3.959 5.7-10.612 7.068-18.775 5.087a21.487 21.487 0 0 1-1.975-.61 24.35 24.35 0 0 1-2.346-.974 24.383 24.383 0 0 1-4.112-2.509c-7.304-5.542-11.843-16.116-7.076-24.727" fill="#8b8888" class="fill-000000"></path></svg>